<svg id="orang_copy_2" data-name="orang copy 2" xmlns="http://www.w3.org/2000/svg" width="555.469" height="722.25" viewBox="0 0 555.469 722.25">
  <defs>
    <style>
      .cls-1 {
        fill: #fbbb1b;
      }

      .cls-1, .cls-2 {
        fill-rule: evenodd;
      }

      .cls-2 {
        fill: #222aef;
      }

      .cls-3 {
        fill: #ff4c2e;
      }
    </style>
  </defs>
  <path class="cls-1" d="M558,821c4.369-112.233,12.475-178.821-16-305C524,437.688,643.857,396.4,674,485c36.723,137.048,29.687,256.584,23,348C689.709,929.174,553.019,922.256,558,821Z" transform="translate(-262.25 -178.938)"/>
  <path class="cls-2" d="M526,515c-82.946-.076-150.6-11.014-211-22-80.872-14.036-65-118.044,22-103,170.609,23.237,297.434,78.222,385-178,19.513-56.407,126.64-43.087,87,59-32.953,84.23-59.832,129.273-124,200C640.842,368.3,500.888,433.853,526,515Z" transform="translate(-262.25 -178.938)"/>
  <circle class="cls-3" cx="267.828" cy="118.14" r="89.922"/>
</svg>
